<?xml version="1.0" encoding="UTF-8" standalone="no"?>
<!-- Created with Inkscape (http://www.inkscape.org/) -->

<svg
   xmlns:dc="http://purl.org/dc/elements/1.1/"
   xmlns:cc="http://creativecommons.org/ns#"
   xmlns:rdf="http://www.w3.org/1999/02/22-rdf-syntax-ns#"
   xmlns:svg="http://www.w3.org/2000/svg"
   xmlns="http://www.w3.org/2000/svg"
   xmlns:sodipodi="http://sodipodi.sourceforge.net/DTD/sodipodi-0.dtd"
   xmlns:inkscape="http://www.inkscape.org/namespaces/inkscape"
   width="300"
   height="300"
   id="svg2"
   version="1.1"
   inkscape:version="0.48.4 r9939"
   sodipodi:docname="New document 1">
  <defs
     id="defs4" />
  <sodipodi:namedview
     id="base"
     pagecolor="#ffffff"
     bordercolor="#666666"
     borderopacity="1.0"
     inkscape:pageopacity="0.0"
     inkscape:pageshadow="2"
     inkscape:zoom="1.979899"
     inkscape:cx="165.28045"
     inkscape:cy="169.57349"
     inkscape:document-units="px"
     inkscape:current-layer="layer1"
     showgrid="false"
     inkscape:window-width="1920"
     inkscape:window-height="1150"
     inkscape:window-x="1680"
     inkscape:window-y="0"
     inkscape:window-maximized="1" />
  <metadata
     id="metadata7">
    <rdf:RDF>
      <cc:Work
         rdf:about="">
        <dc:format>image/svg+xml</dc:format>
        <dc:type
           rdf:resource="http://purl.org/dc/dcmitype/StillImage" />
        <dc:title></dc:title>
      </cc:Work>
    </rdf:RDF>
  </metadata>
  <g
     inkscape:label="Layer 1"
     inkscape:groupmode="layer"
     id="layer1"
     transform="translate(0,-752.36217)">
    <path
       d="m 119.237,1043.4536 c -18.05275,-4.0432 -37.680783,-7.4826 -51.052313,-21.5026 -11.277979,-10.5124 -22.771508,-20.8961 -32.965429,-32.48236 -3.777267,-19.82232 -2.560124,-40.34301 -2.189696,-60.45675 0.507005,-13.53825 11.506131,-23.99157 8.658544,-38.36078 0.391537,-21.6948 -1.86104,-44.67241 8.941571,-64.49997 5.21235,-13.24761 16.039272,-22.87758 22.761006,-35.21284 9.151346,-10.75944 22.608204,-16.37086 33.760947,-24.7238 22.07655,-10.7269 48.98344,-10.18999 71.16605,0.0307 14.06571,4.45753 27.88252,10.57803 38.00109,21.71975 15.94685,15.83265 29.88837,34.55121 35.09731,56.80209 4.79726,14.38837 5.33286,29.53656 6.59151,44.47287 3.62,13.15782 8.39153,26.12713 8.58582,40.0437 0.65156,17.23518 3.45197,36.62009 -6.49017,51.84783 -8.04366,10.32257 -8.67902,24.67846 -18.14542,34.23886 -13.02917,16.4013 -32.37733,27.9455 -53.57801,28.9852 -22.902,2.3946 -46.40523,3.2296 -69.14444,-0.907 z m 107.06675,-22.693 c 16.42653,-9.469 21.06548,-29.64947 24.27696,-46.89882 2.90403,-24.29192 -3.51997,-48.63162 -11.33102,-71.43385 -2.75858,-10.40501 -10.48219,-6.96485 -8.85834,2.53458 -2.02208,15.88516 -17.60405,21.56825 -31.71308,18.76399 -13.34711,-0.67375 -31.71308,-1.31699 -37.35259,-15.96629 -2.60657,-7.54377 -6.3308,-29.11386 -16.10964,-14.60182 -5.11415,11.33967 -8.78115,26.25314 -1.31486,37.35784 5.97846,10.59562 21.38762,-6.38567 20.91005,3.51918 9.03189,2.82029 5.30818,-19.15072 10.65863,-6.96879 -9.65097,13.50937 11.58831,18.41428 17.80306,27.48082 8.43145,10.92013 8.82422,25.62566 12.56656,38.52881 3.96788,10.59645 0.27589,28.97475 8.16286,35.08945 4.26534,-2.1792 8.2957,-4.7902 12.3027,-7.4049 z m -71.62288,-92.90234 c 6.29825,-9.64861 7.37101,5.10076 0,0 z m -64.035268,80.57834 c -0.243907,-26.05753 10.420498,-53.71451 33.128208,-68.0811 9.2036,-5.98581 10.09416,-22.67935 10.67281,-29.53918 -7.14942,4.94297 -11.11074,17.59775 -10.4969,22.55201 -7.67898,-10.75262 -22.94768,-5.60827 -34.220408,-7.07039 -15.896184,3.03399 -23.24068,-10.96765 -28.467995,-22.97367 -10.211512,2.75727 -5.884734,24.03042 -8.302006,33.53778 -0.365256,21.50866 -1.823942,43.92415 4.969231,64.63655 7.535368,10.1603 17.847698,21.2403 30.232313,24.3974 3.169732,-4.9734 2.038206,-11.8075 2.48472,-17.458 z m 87.131548,2.986 c -3.94503,-15.15557 9.0437,4.8253 12.83068,-6.9234 8.2285,-11.39035 6.63798,-29.37115 -3.17472,-39.22455 -18.03647,-13.8386 -46.52599,-20.85938 -65.44252,-4.88391 -6.31111,4.18317 -7.59943,11.28218 1.51603,5.31081 20.11007,-11.44758 44.67503,-5.34704 63.72809,5.0283 -14.16915,-1.72905 -27.52283,-11.85085 -42.44076,-8.12006 -14.64935,2.95418 -32.1988,5.67234 -41.10965,19.07931 -6.611726,10.76365 5.49722,35.3363 17.5904,20.6053 9.8001,-6.66903 -5.74821,8.5125 2.96232,12.0351 8.13214,15.746 21.37266,-4.828 21.67538,-14.79532 3.63418,-11.98581 -9.37294,-20.67875 -16.15348,-24.38119 13.03258,-0.99159 27.02398,3.81612 39.39783,-1.53572 12.64507,-6.10527 -6.24573,8.10457 -9.4685,10.37009 -10.16425,10.61242 -0.44326,26.55664 6.59177,36.14494 7.07355,6.1436 13.60468,-0.9856 11.49642,-8.7111 z m -45.41279,-22.02065 c 6.4009,-4.19971 12.36728,-1.36559 2.62547,1.75505 -2.71946,1.61598 -8.82264,0.0536 -2.62547,-1.75505 z m 32.16203,-1.7388 c 12.50959,-2.22787 5.64661,4.2769 0,0 z M 44.411036,976.48914 c -1.990869,-7.35867 4.457789,-23.13933 0.184308,-25.27069 -2.442634,-2.11645 4.523689,-16.25535 2.33667,-23.94877 0.882579,-8.71237 -2.007016,-0.36035 -3.846316,3.24088 -2.309051,6.44265 -9.262666,16.98602 -4.505836,3.66463 1.175739,-7.14259 14.072531,-19.45133 2.504307,-21.73523 -7.823382,11.30633 -4.559132,26.90584 -6.007605,40.05946 0.608663,13.73174 -1.497727,28.6439 4.821416,41.33018 5.594094,1.60114 3.938734,-13.62489 4.51345,-17.33967 z m -5.871606,-5.46571 c -3.263987,-4.75788 -1.921399,-22.61056 2.55209,-9.39236 0.646391,2.5543 0.3484,21.60449 -2.55209,9.39236 z m 225.07911,-28.88019 c -0.46187,-14.11638 1.18136,-29.34228 -6.37386,-41.9708 -0.0131,-13.53588 -15.28576,10.3953 -7.61938,15.56564 4.15192,10.30839 5.36856,22.74446 8.80846,32.45083 -1.92056,-4.39661 0.16015,-19.7488 3.10199,-7.66427 1.84416,9.6045 2.01237,21.86125 -6.63036,25.77426 0.83896,6.98139 3.04869,21.8644 6.88687,7.03889 1.76287,-10.28818 1.73699,-20.78587 1.82625,-31.19586 z M 258.23002,922.762 c 0.58724,-4.21808 -11.81305,-11.3977 -2.90587,-11.43708 4.58328,2.24284 8.6441,26.85858 2.90587,11.43708 z m -30.0354,-29.00359 c 3.06104,-15.7229 -12.60463,-23.3751 -26.00845,-22.49189 -13.90109,-0.40367 -28.11881,-2.21926 -41.86316,0.15989 -4.71325,4.57725 -2.1003,11.1509 0.69993,1.76453 0.7109,8.81292 -6.07351,30.47648 11.09367,29.6337 18.64374,1.6693 37.38147,1.80706 56.07746,2.5607 v -11.62716 z m -89.26606,-1.32935 c 1.72297,-13.95544 -7.92157,-25.11474 -22.45225,-21.11668 -13.82101,0.86476 -29.809612,-2.49679 -41.66887,6.3182 -2.404932,3.58456 -11.423167,15.12246 -6.8853,17.07502 22.825855,1.95682 45.71997,4.8272 68.59571,4.71693 2.88277,-0.92448 2.22178,-4.71771 2.40843,-6.99347 z m -76.138694,2.45455 c -6.48124,-10.11227 -6.536375,9.88963 0,0 z m 180.010254,-8.09512 c -3.10646,-19.44529 -20.9489,-33.08095 -22.3131,-53.03454 1.30181,-13.486 -8.92556,-22.72004 -18.73747,-30.00652 -9.53755,-7.4608 -19.90633,-20.3965 -33.17284,-13.02339 -23.84533,5.03907 -49.02282,1.00571 -72.344891,8.63098 -18.725918,8.41805 -24.704644,30.01702 -31.13285,47.81772 -3.500017,12.78658 -8.674035,26.14866 -6.46365,39.51861 12.388553,1.77608 5.982401,-18.9609 15.803768,-24.25437 9.156597,-10.84583 24.788658,-9.11617 37.518003,-11.35517 16.05975,-3.29471 27.78274,15.85444 43.66423,11.08632 5.8359,-13.62384 22.59638,-14.44929 35.50426,-12.84775 13.32637,1.09178 28.52838,5.39587 34.22303,18.87452 0.23603,6.58783 16.65337,15.5827 13.29985,15.19649 -18.45261,-5.38799 0.0105,18.08032 4.15324,3.39763 z m -85.49325,-4.66809 c -6.335,-2.04847 -15.94292,1.5254 -16.66282,-9.22486 -10.09311,-2.8867 5.71512,17.90126 14.15654,11.42291 1.03764,-0.16593 2.54193,-0.91876 2.50623,-2.19823 z m -3.22723,-7.74829 c -3.78987,-10.01066 -14.25894,4.84977 -2.84733,3.61265 1.43312,-0.70331 2.36064,-2.14057 2.84733,-3.61265 z m 70.17625,-3.11775 c -4.90124,-5.3809 -13.70392,-1.19845 -3.08021,1.86908 1.69264,1.63162 5.12624,0.4363 3.08021,-1.86908 z"
       style="fill:#000000"
       id="path2818"
       inkscape:connector-curvature="0" />
  </g>
</svg>
