<?xml version="1.0" encoding="UTF-8" standalone="no"?>
<!-- Created with Inkscape (http://www.inkscape.org/) -->

<svg
   xmlns:dc="http://purl.org/dc/elements/1.1/"
   xmlns:cc="http://creativecommons.org/ns#"
   xmlns:rdf="http://www.w3.org/1999/02/22-rdf-syntax-ns#"
   xmlns:svg="http://www.w3.org/2000/svg"
   xmlns="http://www.w3.org/2000/svg"
   xmlns:sodipodi="http://sodipodi.sourceforge.net/DTD/sodipodi-0.dtd"
   xmlns:inkscape="http://www.inkscape.org/namespaces/inkscape"
   width="300"
   height="300"
   id="svg2"
   version="1.1"
   inkscape:version="0.48.4 r9939"
   sodipodi:docname="sample.svg"
   inkscape:export-filename="/home/richard/git/SR2GO/images/sample.png"
   inkscape:export-xdpi="90"
   inkscape:export-ydpi="90">
  <defs
     id="defs4" />
  <sodipodi:namedview
     id="base"
     pagecolor="#ffffff"
     bordercolor="#666666"
     borderopacity="1.0"
     inkscape:pageopacity="0.0"
     inkscape:pageshadow="2"
     inkscape:zoom="1.979899"
     inkscape:cx="223.23231"
     inkscape:cy="204.99552"
     inkscape:document-units="px"
     inkscape:current-layer="layer1"
     showgrid="false"
     width="49px"
     inkscape:window-width="1920"
     inkscape:window-height="1150"
     inkscape:window-x="1680"
     inkscape:window-y="0"
     inkscape:window-maximized="1" />
  <metadata
     id="metadata7">
    <rdf:RDF>
      <cc:Work
         rdf:about="">
        <dc:format>image/svg+xml</dc:format>
        <dc:type
           rdf:resource="http://purl.org/dc/dcmitype/StillImage" />
        <dc:title></dc:title>
      </cc:Work>
    </rdf:RDF>
  </metadata>
  <g
     inkscape:label="Layer 1"
     inkscape:groupmode="layer"
     id="layer1"
     transform="translate(0,-752.3622)">
    <path
       sodipodi:type="arc"
       style="fill:#ff0000;fill-rule:evenodd;stroke:#000000;stroke-width:1px;stroke-linecap:butt;stroke-linejoin:miter;stroke-opacity:1"
       id="path2985"
       sodipodi:cx="71.468292"
       sodipodi:cy="86.100197"
       sodipodi:rx="43.689098"
       sodipodi:ry="43.689098"
       d="m 115.15739,86.100197 c 0,24.128823 -19.560275,43.689103 -43.689098,43.689103 -24.128823,0 -43.689098,-19.56028 -43.689098,-43.689103 0,-24.128823 19.560275,-43.689099 43.689098,-43.689099 24.128823,0 43.689098,19.560276 43.689098,43.689099 z"
       transform="translate(0,752.3622)" />
    <path
       sodipodi:type="arc"
       style="fill:#ff0000;fill-rule:evenodd;stroke:#000000;stroke-width:1px;stroke-linecap:butt;stroke-linejoin:miter;stroke-opacity:1"
       id="path2987"
       sodipodi:cx="113.13708"
       sodipodi:cy="216.66241"
       sodipodi:rx="55.558392"
       sodipodi:ry="55.558392"
       d="m 168.69547,216.66241 c 0,30.68406 -24.87434,55.5584 -55.55839,55.5584 -30.684055,0 -55.558394,-24.87434 -55.558394,-55.5584 0,-30.68405 24.874339,-55.55839 55.558394,-55.55839 30.68405,0 55.55839,24.87434 55.55839,55.55839 z"
       transform="translate(0,752.3622)" />
    <path
       sodipodi:type="arc"
       style="fill:#ff0000;fill-rule:evenodd;stroke:#000000;stroke-width:1px;stroke-linecap:butt;stroke-linejoin:miter;stroke-opacity:1"
       id="path2989"
       sodipodi:cx="213.64726"
       sodipodi:cy="92.918732"
       sodipodi:rx="72.73098"
       sodipodi:ry="72.73098"
       d="m 286.37824,92.918732 c 0,40.168208 -32.56277,72.730978 -72.73098,72.730978 -40.16821,0 -72.73098,-32.56277 -72.73098,-72.730978 0,-40.168211 32.56277,-72.73098 72.73098,-72.73098 40.16821,0 72.73098,32.562769 72.73098,72.73098 z"
       transform="translate(0,752.3622)" />
  </g>
</svg>
