<?xml version="1.0" encoding="UTF-8" standalone="no"?>
<!-- Svg Vector Icons : http://www.onlinewebfonts.com/icon -->

<svg
   xmlns:dc="http://purl.org/dc/elements/1.1/"
   xmlns:cc="http://creativecommons.org/ns#"
   xmlns:rdf="http://www.w3.org/1999/02/22-rdf-syntax-ns#"
   xmlns:svg="http://www.w3.org/2000/svg"
   xmlns="http://www.w3.org/2000/svg"
   xmlns:sodipodi="http://sodipodi.sourceforge.net/DTD/sodipodi-0.dtd"
   xmlns:inkscape="http://www.inkscape.org/namespaces/inkscape"
   version="1.1"
   x="0px"
   y="0px"
   viewBox="0 0 1000 1000"
   enable-background="new 0 0 1000 1000"
   xml:space="preserve"
   id="svg4194"
   inkscape:version="0.91 r13725"
   sodipodi:docname="logo_dice.svg"
   inkscape:export-filename="/home/ric/Nextcloud/blog/logo_dice.png"
   inkscape:export-xdpi="30.120001"
   inkscape:export-ydpi="30.120001"><defs
     id="defs4212" /><sodipodi:namedview
     pagecolor="#ffffff"
     bordercolor="#666666"
     borderopacity="1"
     objecttolerance="10"
     gridtolerance="10"
     guidetolerance="10"
     inkscape:pageopacity="0"
     inkscape:pageshadow="2"
     inkscape:window-width="1680"
     inkscape:window-height="1013"
     id="namedview4210"
     showgrid="false"
     inkscape:zoom="0.64"
     inkscape:cx="75.62559"
     inkscape:cy="325.77519"
     inkscape:window-x="0"
     inkscape:window-y="150"
     inkscape:window-maximized="0"
     inkscape:current-layer="g4198" /><metadata
     id="metadata4196"> Svg Vector Icons : http://www.onlinewebfonts.com/icon <rdf:RDF><cc:Work
     rdf:about=""><dc:format>image/svg+xml</dc:format><dc:type
       rdf:resource="http://purl.org/dc/dcmitype/StillImage" /><dc:title /></cc:Work></rdf:RDF></metadata><g
     id="g4198"><g
       id="g5032"
       transform="translate(-57.82557,88)"><path
         inkscape:connector-curvature="0"
         id="path4202"
         d="m 499.90924,293.16915 c 12.60572,0 22.96659,-10.18818 22.96659,-22.96658 l 0,-201.173479 c 0,-12.77841 -10.18819,-22.96659 -22.96659,-22.96659 -12.60572,0 -22.7939,10.18818 -22.7939,22.96659 l 0,201.173479 c 0,12.7784 10.18818,22.96658 22.7939,22.96658 z" /><path
         inkscape:connector-curvature="0"
         id="path4204"
         d="m 683.64193,293.16915 c 12.60572,0 22.79391,-10.18818 22.79391,-22.96658 l 0,-100.5004 c 0,-12.7784 -10.36087,-22.96659 -22.79391,-22.96659 -12.7784,0 -22.96658,10.18819 -22.96658,22.96659 l 0,100.5004 c 0,12.7784 10.18818,22.96658 22.96658,22.96658 z" /><path
         inkscape:connector-curvature="0"
         id="path4206"
         d="m 316.52191,293.16915 c 12.60572,0 22.96659,-10.18818 22.96659,-22.96658 l 0,-100.5004 c 0,-12.7784 -10.36087,-22.96659 -22.96659,-22.96659 -12.7784,0 -22.96658,10.18819 -22.96658,22.96659 l 0,100.5004 c 0,12.7784 10.18818,22.96658 22.96658,22.96658 z" /></g><path
       d="m 968.41563,611.5931 c -5.0077,-33.67281 -22.9666,-49.21411 -37.1264,-56.29404 -25.2114,-12.60572 -56.4667,-7.59797 -80.6421,0 l 0,-101.3638 c 0,-12.60572 -10.3608,-22.96659 -22.9666,-22.96659 l -774.30201,0 c -12.605721,0 -22.966591,10.18818 -22.966591,22.96659 l 0,121.56749 c 0,109.47982 42.652231,212.39775 120.013361,289.75889 30.2192,30.21919 64.41005,54.91259 101.36381,74.08019 l -87.722,0 c -12.60572,0 -22.96659,10.18818 -22.96659,22.96658 0,12.60572 10.18819,22.96659 22.96659,22.96659 l 276.11708,0 1.89949,0 278.01657,0 c 12.60572,0 22.96659,-10.36087 22.96659,-22.96659 0,-12.60572 -10.18819,-22.96658 -22.96659,-22.96658 l -90.13953,0 c 36.60839,-19.1676 70.79925,-43.68832 100.84576,-73.73483 7.94333,-7.77065 15.19594,-16.23203 22.27586,-24.52072 l -2.07217,4.14435 c 13.46912,6.73456 27.62897,10.18818 42.30687,10.18818 22.6212,0 46.2785,-8.28869 69.0724,-24.69339 64.2374,-46.10586 115.6964,-152.6501 106.0262,-219.13232 z M 698.5151,833.14295 C 629.96071,901.52467 538.95777,939.34183 442.08367,939.34183 l -1.89949,0 c -97.21946,0 -188.56776,-37.81716 -257.12216,-106.54424 C 114.33494,764.07051 76.3451,672.72221 76.3451,575.33007 l 0,-98.60091 728.36893,0 0,99.80968 c 0,97.04678 -37.81721,188.04971 -106.19893,256.60411 z m 137.10883,-39.54397 c -20.3764,14.67789 -39.1986,18.64956 -56.2941,13.29644 41.0981,-59.74766 64.9281,-129.16546 69.7632,-202.55493 19.513,-7.94333 46.7966,-15.36861 61.4745,-7.94333 2.5902,1.20877 9.6701,4.83507 12.2603,21.9305 6.7346,44.72441 -32.9821,136.41807 -87.2039,175.27132 z"
       id="path4208"
       inkscape:connector-curvature="0" /><g
       id="g4483-8-7"
       style="fill:#c6985a;fill-opacity:1;stroke:#180403;stroke-opacity:1;stroke-width:1.74750265;stroke-miterlimit:4;stroke-dasharray:none"
       transform="matrix(15.351108,-7.685154,7.685154,15.351108,-305.9391,444.06315)"><g
         id="g5004"
         transform="translate(0.99617965,0.59829565)"
         style="stroke-width:1.74750265;stroke-miterlimit:4;stroke-dasharray:none"><path
           style="fill:none;fill-opacity:1;stroke:#000000;stroke-width:1.74750268;stroke-linejoin:round;stroke-miterlimit:4;stroke-dasharray:none;stroke-opacity:1"
           d="m 24.431519,24.431519 15.136961,0 0,15.136961 -15.136961,0 z"
           id="rect4429-7-3" /><path
           style="fill:#000000;fill-opacity:1;stroke:#000000;stroke-width:1.74750268;stroke-linejoin:round;stroke-miterlimit:4;stroke-dasharray:none;stroke-opacity:1"
           d="M 28.618718,28 A 0.61871845,0.61871845 0 0 1 28,28.618718 0.61871845,0.61871845 0 0 1 27.381282,28 0.61871845,0.61871845 0 0 1 28,27.381282 0.61871845,0.61871845 0 0 1 28.618718,28 Z"
           id="path4431-9-6" /><path
           style="fill:#000000;fill-opacity:1;stroke:#000000;stroke-width:1.74750268;stroke-linejoin:round;stroke-miterlimit:4;stroke-dasharray:none;stroke-opacity:1"
           d="M 28.618718,32 A 0.61871845,0.61871845 0 0 1 28,32.618718 0.61871845,0.61871845 0 0 1 27.381282,32 0.61871845,0.61871845 0 0 1 28,31.381282 0.61871845,0.61871845 0 0 1 28.618718,32 Z"
           id="path4431-6-2-1" /><path
           style="fill:#000000;fill-opacity:1;stroke:#000000;stroke-width:1.74750268;stroke-linejoin:round;stroke-miterlimit:4;stroke-dasharray:none;stroke-opacity:1"
           d="M 28.618718,36 A 0.61871845,0.61871845 0 0 1 28,36.618718 0.61871845,0.61871845 0 0 1 27.381282,36 0.61871845,0.61871845 0 0 1 28,35.381282 0.61871845,0.61871845 0 0 1 28.618718,36 Z"
           id="path4431-7-0-2" /><path
           style="fill:#000000;fill-opacity:1;stroke:#000000;stroke-width:1.74750268;stroke-linejoin:round;stroke-miterlimit:4;stroke-dasharray:none;stroke-opacity:1"
           d="M 36.618718,28 A 0.61871845,0.61871845 0 0 1 36,28.618718 0.61871845,0.61871845 0 0 1 35.381282,28 0.61871845,0.61871845 0 0 1 36,27.381282 0.61871845,0.61871845 0 0 1 36.618718,28 Z"
           id="path4431-5-23-9" /><path
           style="fill:#000000;fill-opacity:1;stroke:#000000;stroke-width:1.74750268;stroke-linejoin:round;stroke-miterlimit:4;stroke-dasharray:none;stroke-opacity:1"
           d="M 36.618718,32 A 0.61871845,0.61871845 0 0 1 36,32.618718 0.61871845,0.61871845 0 0 1 35.381282,32 0.61871845,0.61871845 0 0 1 36,31.381282 0.61871845,0.61871845 0 0 1 36.618718,32 Z"
           id="path4431-3-7-3" /><path
           style="fill:#000000;fill-opacity:1;stroke:#000000;stroke-width:1.74750268;stroke-linejoin:round;stroke-miterlimit:4;stroke-dasharray:none;stroke-opacity:1"
           d="M 36.618718,36 A 0.61871845,0.61871845 0 0 1 36,36.618718 0.61871845,0.61871845 0 0 1 35.381282,36 0.61871845,0.61871845 0 0 1 36,35.381282 0.61871845,0.61871845 0 0 1 36.618718,36 Z"
           id="path4431-56-5-1" /></g></g></g></svg>